<svg width="45" height="45" viewBox="0 0 45 45" fill="none" xmlns="http://www.w3.org/2000/svg">
<path d="M39.8568 20.5537C40.7456 21.7162 40.7456 23.2856 39.8568 24.4463C37.0575 28.1006 30.3412 35.625 22.5 35.625C14.6587 35.625 7.94246 28.1006 5.14308 24.4463C4.71068 23.8896 4.47595 23.2048 4.47595 22.5C4.47595 21.7952 4.71068 21.1104 5.14308 20.5537C7.94246 16.8994 14.6587 9.375 22.5 9.375C30.3412 9.375 37.0575 16.8994 39.8568 20.5537V20.5537Z" stroke="white" stroke-width="3" stroke-linecap="round" stroke-linejoin="round"/>
<path d="M22.5 28.125C25.6066 28.125 28.125 25.6066 28.125 22.5C28.125 19.3934 25.6066 16.875 22.5 16.875C19.3934 16.875 16.875 19.3934 16.875 22.5C16.875 25.6066 19.3934 28.125 22.5 28.125Z" stroke="white" stroke-width="3" stroke-linecap="round" stroke-linejoin="round"/>
</svg>
